<svg width="49.652" height="49.652" xmlns="http://www.w3.org/2000/svg">

 <g>
  <title>background</title>
  <rect fill="none" id="canvas_background" height="402" width="582" y="-1" x="-1"/>
 </g>
 <g>
  <title>Layer 1</title>
  <g id="svg_1">
   <g id="svg_2">
    <path fill="#ffffff" id="svg_3" d="m24.826,0c-13.689,0 -24.826,11.137 -24.826,24.826c0,13.688 11.137,24.826 24.826,24.826c13.688,0 24.826,-11.138 24.826,-24.826c0,-13.689 -11.136,-24.826 -24.826,-24.826zm6.174,25.7l-4.039,0c0,6.453 0,14.396 0,14.396l-5.985,0c0,0 0,-7.866 0,-14.396l-2.845,0l0,-5.088l2.845,0l0,-3.291c0,-2.357 1.12,-6.04 6.04,-6.04l4.435,0.017l0,4.939c0,0 -2.695,0 -3.219,0c-0.524,0 -1.269,0.262 -1.269,1.386l0,2.99l4.56,0l-0.523,5.087z"/>
   </g>
  </g>
  <g id="svg_4"/>
  <g id="svg_5"/>
  <g id="svg_6"/>
  <g id="svg_7"/>
  <g id="svg_8"/>
  <g id="svg_9"/>
  <g id="svg_10"/>
  <g id="svg_11"/>
  <g id="svg_12"/>
  <g id="svg_13"/>
  <g id="svg_14"/>
  <g id="svg_15"/>
  <g id="svg_16"/>
  <g id="svg_17"/>
  <g id="svg_18"/>
 </g>
</svg>