<svg width="49.652" height="49.652" xmlns="http://www.w3.org/2000/svg">

 <g>
  <title>background</title>
  <rect fill="none" id="canvas_background" height="402" width="582" y="-1" x="-1"/>
 </g>
 <g>
  <title>Layer 1</title>
  <g id="svg_1">
   <g id="svg_2">
    <g id="svg_3">
     <path fill="#ffffff" id="svg_4" d="m24.825,29.796c2.739,0 4.972,-2.229 4.972,-4.97c0,-1.082 -0.354,-2.081 -0.94,-2.897c-0.903,-1.252 -2.371,-2.073 -4.029,-2.073c-1.659,0 -3.126,0.82 -4.031,2.072c-0.588,0.816 -0.939,1.815 -0.94,2.897c-0.003,2.741 2.228,4.971 4.968,4.971z"/>
     <polygon fill="#ffffff" id="svg_5" points="35.678,18.746 35.678,14.58 35.678,13.96 35.055,13.962 30.891,13.975 30.907,18.762    "/>
     <path fill="#ffffff" id="svg_6" d="m24.826,0c-13.689,0 -24.826,11.137 -24.826,24.826c0,13.688 11.137,24.826 24.826,24.826c13.688,0 24.826,-11.138 24.826,-24.826c0,-13.689 -11.136,-24.826 -24.826,-24.826zm14.119,21.929l0,11.56c0,3.011 -2.448,5.458 -5.457,5.458l-17.324,0c-3.01,0 -5.457,-2.447 -5.457,-5.458l0,-11.56l0,-5.764c0,-3.01 2.447,-5.457 5.457,-5.457l17.323,0c3.01,0 5.458,2.447 5.458,5.457l0,5.764z"/>
     <path fill="#ffffff" id="svg_7" d="m32.549,24.826c0,4.257 -3.464,7.723 -7.723,7.723c-4.259,0 -7.722,-3.466 -7.722,-7.723c0,-1.024 0.204,-2.003 0.568,-2.897l-4.215,0l0,11.56c0,1.494 1.213,2.704 2.706,2.704l17.323,0c1.491,0 2.706,-1.21 2.706,-2.704l0,-11.56l-4.217,0c0.367,0.894 0.574,1.873 0.574,2.897z"/>
    </g>
   </g>
  </g>
  <g id="svg_8"/>
  <g id="svg_9"/>
  <g id="svg_10"/>
  <g id="svg_11"/>
  <g id="svg_12"/>
  <g id="svg_13"/>
  <g id="svg_14"/>
  <g id="svg_15"/>
  <g id="svg_16"/>
  <g id="svg_17"/>
  <g id="svg_18"/>
  <g id="svg_19"/>
  <g id="svg_20"/>
  <g id="svg_21"/>
  <g id="svg_22"/>
 </g>
</svg>