<?xml version="1.0" encoding="utf-8"?>
<svg viewBox="-2868.52 -926.014 6277 1930" width="6277" height="1930" xmlns="http://www.w3.org/2000/svg">
  <g id="Layer_x0020_1" transform="matrix(1, 0, 0, 1, -2869.519531, -913.013672)">
    <path class="fil0" d="M824 1524c-58,0 -115,-11 -171,-32 -56,-21 -102,-52 -138,-90l-4 0 0 515 -510 0 0 -1595 483 0 0 118 5 0c43,-49 95,-86 156,-111 61,-25 120,-38 178,-38 88,0 165,18 231,53 67,36 122,82 167,140 45,58 78,123 101,196 23,73 35,147 35,223 0,77 -12,153 -35,227 -23,74 -57,140 -101,199 -44,59 -100,106 -166,141 -66,36 -143,53 -230,53z" style="fill-rule: nonzero;"/>
    <polygon class="fil0" points="1503,1493 2017,1493 2017,322 1503,322 " style="fill-rule: nonzero;"/>
    <polygon class="fil0" points="2935,1228 2743,1493 2165,1493 2617,892 2196,322 2779,322 2948,567 3115,322 3680,322 3260,892 3703,1493 3115,1493 " style="fill-rule: nonzero;"/>
    <path class="fil0" d="M4887 904c0,19 0,37 -1,57 -1,19 -2,35 -3,48l-755 0c1,20 8,38 20,53 12,16 27,29 45,40 18,11 38,20 60,26 22,6 44,9 67,9 46,0 83,-8 114,-25 30,-16 54,-34 69,-54l349 177c-50,81 -122,145 -216,192 -95,47 -204,70 -329,70 -81,0 -160,-13 -237,-38 -77,-26 -145,-64 -204,-114 -59,-50 -106,-113 -142,-189 -36,-75 -53,-163 -53,-262 0,-92 16,-176 49,-251 33,-75 77,-138 133,-190 56,-52 122,-92 198,-120 76,-29 157,-43 244,-43 88,0 168,15 241,46 72,31 134,73 186,128 52,55 92,120 120,195 28,75 43,157 43,245z" style="fill-rule: nonzero;"/>
    <polygon class="fil0" points="5056,1493 5582,1493 5582,-13 5056,-13 " style="fill-rule: nonzero;"/>
    <polygon class="fil0" points="5744,1489 6278,1489 6278,968 5744,968 " style="fill-rule: nonzero;"/>
  </g>
</svg>