<?xml version="1.0" encoding="UTF-8"?>
<!DOCTYPE svg PUBLIC "-//W3C//DTD SVG 1.1//EN" "http://www.w3.org/Graphics/SVG/1.1/DTD/svg11.dtd">
<!-- Creator: CorelDRAW X6 -->
<svg xmlns="http://www.w3.org/2000/svg" xml:space="preserve" width="7.19444in" height="5.63889in" version="1.1" style="shape-rendering:geometricPrecision; text-rendering:geometricPrecision; image-rendering:optimizeQuality; fill-rule:evenodd; clip-rule:evenodd"
viewBox="0 0 7194 5639"
 xmlns:xlink="http://www.w3.org/1999/xlink">
 <defs>
  <style type="text/css">
   <![CDATA[
    .fil0 {fill:#FEFEFE;fill-rule:nonzero}
   ]]>
  </style>
 </defs>
 <g id="Layer_x0020_1">
  <metadata id="CorelCorpID_0Corel-Layer"/>
  <path class="fil0" d="M2859 4276c-201,0 -400,-37 -595,-112 -196,-75 -356,-179 -480,-313l-15 0 0 1788 -1770 0 0 -5536 1677 0 0 409 16 0c149,-170 330,-299 541,-386 211,-88 417,-131 618,-131 304,0 572,61 804,185 232,124 425,286 579,487 155,201 271,428 351,680 80,252 120,510 120,773 0,268 -40,531 -120,789 -80,257 -197,488 -351,691 -154,204 -347,367 -576,491 -229,124 -496,186 -800,186z"/>
  <polygon class="fil0" points="5370,4167 7203,4167 7203,2335 5370,2335 "/>
 </g>
</svg>
